[center]
[img]http://img198.imageshack.us/img198/5021/kegn0.jpg[/img]

The Thing 2011 R5 LiNE XviD - MiSTERE
 
http://www.imdb.com/title/tt0905372/

Video
ID : 0
Format : MPEG-4 Visual
Format profile : Advanced Simple@L5
Format settings, BVOP : 1
Format settings, QPel : No
Format settings, GMC : No warppoints
Format settings, Matrix : Default (H.263)
Codec ID : XVID
Codec ID/Hint : XviD
Duration : 1h 38mn
Bit rate : 1 515 Kbps
Width : 720 pixels
Height : 304 pixels
Display aspect ratio : 2.35:1
Frame rate : 25.000 fps
Color space : YUV
Chroma subsampling : 4:2:0
Bit depth : 8 bits
Scan type : Progressive
Compression mode : Lossy
Bits/(Pixel*Frame) : 0.277
Stream size : 1.05 GiB (92%)
Writing library : XviD 1.2.1 (UTC 2008-12-04)

Audio
ID : 1
Format : MPEG Audio
Format version : Version 1
Format profile : Layer 3
Mode : Joint stereo
Mode extension : MS Stereo
Codec ID : 55
Codec ID/Hint : MP3
Duration : 1h 38mn
Bit rate mode : Constant
Bit rate : 128 Kbps
Channel(s) : 2 channels
Sampling rate : 44.1 KHz
Compression mode : Lossy
Stream size : 90.5 MiB (8%)
Alignment : Split accross interleaves
Interleave, duration : 40 ms (1.00 video frame)


Not much to say here, 
video is nice, audio is nice
nothing missing, BUT
no subs for foreign language 
so enjoy or wait for retail[/center]